<svg xmlns="http://www.w3.org/2000/svg" width="40" height="40" fill="none"><g stroke="#cb2d3e" stroke-linecap="round" stroke-linejoin="round" stroke-width="4" clip-path="url(#a)"><path d="M30 6.667H10A3.333 3.333 0 0 0 6.667 10v20A3.333 3.333 0 0 0 10 33.333h20A3.333 3.333 0 0 0 33.333 30V10A3.333 3.333 0 0 0 30 6.667Z"/><path d="M25 15H15v10h10V15ZM15 1.667v5M25 1.667v5M15 33.333v5M25 33.333v5M33.334 15h5M33.334 23.333h5M1.667 15h5M1.667 23.333h5"/></g><defs><clipPath id="a"><path fill="#fff" d="M0 0h40v40H0z"/></clipPath></defs></svg>